<?xml version="1.0" encoding="UTF-8"?>
<!DOCTYPE svg PUBLIC "-//W3C//DTD SVG 1.1//EN" "http://www.w3.org/Graphics/SVG/1.1/DTD/svg11.dtd">
<svg xmlns="http://www.w3.org/2000/svg" version="1.1" width="1320px" height="1000px" style="shape-rendering:geometricPrecision; text-rendering:geometricPrecision; image-rendering:optimizeQuality; fill-rule:evenodd; clip-rule:evenodd" xmlns:xlink="http://www.w3.org/1999/xlink">
<g><path style="opacity:1" fill="#fefffe" d="M 766.5,423.5 C 800.738,420.703 826.905,433.703 845,462.5C 860.008,493.376 857.008,522.376 836,549.5C 811.296,574.966 782.13,581.8 748.5,570C 709.868,550.228 695.368,519.062 705,476.5C 715.531,447.127 736.031,429.461 766.5,423.5 Z M 767.5,439.5 C 803.24,436.762 826.407,452.428 837,486.5C 841.58,515.502 831.414,537.669 806.5,553C 773.53,566.781 746.696,559.281 726,530.5C 711.214,500.043 716.38,473.543 741.5,451C 749.599,445.697 758.265,441.863 767.5,439.5 Z"/></g>
<g><path style="opacity:1" fill="#fefffe" d="M 221.5,458.5 C 235.546,456.295 247.38,460.295 257,470.5C 259.617,475.183 261.117,480.183 261.5,485.5C 255.167,485.5 248.833,485.5 242.5,485.5C 241.465,477.635 236.965,473.968 229,474.5C 220.533,473.632 216.867,477.299 218,485.5C 219.731,487.617 221.898,489.117 224.5,490C 235.29,491.947 245.623,495.28 255.5,500C 264.324,509.003 265.824,519.17 260,530.5C 254.641,537.602 247.475,541.768 238.5,543C 224.201,545.557 212.035,541.723 202,531.5C 198.768,526.639 197.268,521.306 197.5,515.5C 203.509,515.334 209.509,515.501 215.5,516C 219.331,527.202 226.998,530.869 238.5,527C 244.583,524.588 245.916,520.588 242.5,515C 231.452,511.488 220.452,507.821 209.5,504C 198.809,495.743 195.976,485.243 201,472.5C 205.945,464.953 212.778,460.286 221.5,458.5 Z"/></g>
<g><path style="opacity:1" fill="#fefffe" d="M 900.5,458.5 C 907.841,458.334 915.174,458.5 922.5,459C 933.458,475.748 944.291,492.582 955,509.5C 955.5,492.503 955.667,475.503 955.5,458.5C 961.833,458.5 968.167,458.5 974.5,458.5C 974.5,486.833 974.5,515.167 974.5,543.5C 967.492,543.666 960.492,543.5 953.5,543C 942.542,526.252 931.709,509.418 921,492.5C 920.667,509.167 920.333,525.833 920,542.5C 913.59,543.478 907.09,543.811 900.5,543.5C 900.5,515.167 900.5,486.833 900.5,458.5 Z"/></g>
<g><path style="opacity:1" fill="#fefffe" d="M 984.5,458.5 C 1005.5,458.5 1026.5,458.5 1047.5,458.5C 1047.81,464.425 1047.47,470.259 1046.5,476C 1032.5,476.5 1018.5,476.667 1004.5,476.5C 1004.5,481.5 1004.5,486.5 1004.5,491.5C 1017.5,491.5 1030.5,491.5 1043.5,491.5C 1043.5,497.167 1043.5,502.833 1043.5,508.5C 1030.5,508.5 1017.5,508.5 1004.5,508.5C 1004.5,514.167 1004.5,519.833 1004.5,525.5C 1018.83,525.5 1033.17,525.5 1047.5,525.5C 1047.81,531.425 1047.47,537.259 1046.5,543C 1025.84,543.5 1005.17,543.667 984.5,543.5C 984.5,515.167 984.5,486.833 984.5,458.5 Z"/></g>
<g><path style="opacity:1" fill="#fefffe" d="M 1051.5,458.5 C 1074.83,458.5 1098.17,458.5 1121.5,458.5C 1121.5,464.5 1121.5,470.5 1121.5,476.5C 1113.17,476.5 1104.83,476.5 1096.5,476.5C 1096.5,498.833 1096.5,521.167 1096.5,543.5C 1089.83,543.5 1083.17,543.5 1076.5,543.5C 1076.5,521.167 1076.5,498.833 1076.5,476.5C 1068.17,476.5 1059.83,476.5 1051.5,476.5C 1051.5,470.5 1051.5,464.5 1051.5,458.5 Z"/></g>
<g><path style="opacity:1" fill="#fefffe" d="M 267.5,459.5 C 289.833,459.5 312.167,459.5 334.5,459.5C 334.5,465.5 334.5,471.5 334.5,477.5C 326.5,477.5 318.5,477.5 310.5,477.5C 310.5,498.833 310.5,520.167 310.5,541.5C 304.167,541.5 297.833,541.5 291.5,541.5C 291.5,520.167 291.5,498.833 291.5,477.5C 283.5,477.5 275.5,477.5 267.5,477.5C 267.5,471.5 267.5,465.5 267.5,459.5 Z"/></g>
<g><path style="opacity:1" fill="#fefffe" d="M 340.5,459.5 C 355.207,459.127 369.873,459.627 384.5,461C 400.761,467.018 406.927,478.518 403,495.5C 399.336,505.163 392.503,511.33 382.5,514C 390.833,523 399.167,532 407.5,541C 399.167,541.667 390.833,541.667 382.5,541C 375,532.167 367.5,523.333 360,514.5C 359.5,523.494 359.334,532.494 359.5,541.5C 353.167,541.5 346.833,541.5 340.5,541.5C 340.5,514.167 340.5,486.833 340.5,459.5 Z M 359.5,477.5 C 366.589,477.116 373.589,477.616 380.5,479C 384.749,483.546 385.582,488.713 383,494.5C 381.745,495.211 380.579,496.044 379.5,497C 372.924,498.377 366.257,498.877 359.5,498.5C 359.5,491.5 359.5,484.5 359.5,477.5 Z"/></g>
<g><path style="opacity:1" fill="#fefffe" d="M 414.5,459.5 C 434.169,459.333 453.836,459.5 473.5,460C 474.833,465.667 474.833,471.333 473.5,477C 459.837,477.5 446.171,477.667 432.5,477.5C 432.5,482.167 432.5,486.833 432.5,491.5C 445.167,491.5 457.833,491.5 470.5,491.5C 470.5,497.167 470.5,502.833 470.5,508.5C 457.833,508.5 445.167,508.5 432.5,508.5C 432.5,513.833 432.5,519.167 432.5,524.5C 446.5,524.5 460.5,524.5 474.5,524.5C 474.5,530.167 474.5,535.833 474.5,541.5C 454.167,541.5 433.833,541.5 413.5,541.5C 413.176,514.093 413.509,486.759 414.5,459.5 Z"/></g>
<g><path style="opacity:1" fill="#fefffe" d="M 506.5,459.5 C 514.196,459.169 521.862,459.503 529.5,460.5C 539.239,487.385 548.573,514.385 557.5,541.5C 550.825,541.666 544.158,541.5 537.5,541C 535.833,536.667 534.167,532.333 532.5,528C 522.151,527.168 511.817,527.334 501.5,528.5C 499.758,532.725 498.424,537.059 497.5,541.5C 490.8,541.83 484.134,541.497 477.5,540.5C 487.372,513.548 497.039,486.548 506.5,459.5 Z M 516.5,481.5 C 520.603,490.805 523.936,500.471 526.5,510.5C 520.132,510.83 513.798,510.496 507.5,509.5C 510.908,500.277 513.908,490.944 516.5,481.5 Z"/></g>
<g><path style="opacity:1" fill="#fefffe" d="M 563.5,459.5 C 571.087,459.186 578.587,459.519 586,460.5C 593.667,477.833 601.333,495.167 609,512.5C 617.379,495.371 625.379,478.037 633,460.5C 640.413,459.519 647.913,459.186 655.5,459.5C 655.5,486.833 655.5,514.167 655.5,541.5C 649.167,541.5 642.833,541.5 636.5,541.5C 636.667,526.496 636.5,511.496 636,496.5C 629.333,511.167 622.667,525.833 616,540.5C 611.333,541.833 606.667,541.833 602,540.5C 595.139,525.583 588.472,510.583 582,495.5C 581.5,510.83 581.333,526.163 581.5,541.5C 575.167,541.5 568.833,541.5 562.5,541.5C 562.176,514.093 562.509,486.759 563.5,459.5 Z"/></g>
<g><path style="opacity:1" fill="#fefffe" d="M 760.5,464.5 C 778.641,475.74 796.641,487.24 814.5,499C 796.968,510.697 779.302,522.197 761.5,533.5C 760.5,510.51 760.167,487.51 760.5,464.5 Z"/></g>
</svg>
