<?xml version="1.0" encoding="UTF-8"?>
<!DOCTYPE svg PUBLIC "-//W3C//DTD SVG 1.1//EN" "http://www.w3.org/Graphics/SVG/1.1/DTD/svg11.dtd">
<svg xmlns="http://www.w3.org/2000/svg" version="1.1" width="1320px" height="1000px" style="shape-rendering:geometricPrecision; text-rendering:geometricPrecision; image-rendering:optimizeQuality; fill-rule:evenodd; clip-rule:evenodd" xmlns:xlink="http://www.w3.org/1999/xlink">
<g><path style="opacity:1" fill="#191919" d="M 766.5,423.5 C 800.738,420.703 826.905,433.703 845,462.5C 860.008,493.376 857.008,522.376 836,549.5C 811.296,574.966 782.13,581.8 748.5,570C 709.868,550.228 695.368,519.062 705,476.5C 715.531,447.127 736.031,429.461 766.5,423.5 Z M 767.5,439.5 C 803.24,436.762 826.407,452.428 837,486.5C 841.58,515.502 831.414,537.669 806.5,553C 773.53,566.781 746.696,559.281 726,530.5C 711.214,500.043 716.38,473.543 741.5,451C 749.599,445.697 758.265,441.863 767.5,439.5 Z"/></g>
<g><path style="opacity:1" fill="#0c    0d0e" d="M 221.5,458.5 C 235.546,456.295 247.38,460.295 257,470.5C 259.617,475.183 261.117,480.183 261.5,485.5C 255.167,485.5 248.833,485.5 242.5,485.5C 241.465,477.635 236.965,473.968 229,474.5C 220.533,473.632 216.867,477.299 218,485.5C 219.731,487.617 221.898,489.117 224.5,490C 235.29,491.947 245.623,495.28 255.5,500C 264.324,509.003 265.824,519.17 260,530.5C 254.641,537.602 247.475,541.768 238.5,543C 224.201,545.557 212.035,541.723 202,531.5C 198.768,526.639 197.268,521.306 197.5,515.5C 203.509,515.334 209.509,515.501 215.5,516C 219.331,527.202 226.998,530.869 238.5,527C 244.583,524.588 245.916,520.588 242.5,515C 231.452,511.488 220.452,507.821 209.5,504C 198.809,495.743 195.976,485.243 201,472.5C 205.945,464.953 212.778,460.286 221.5,458.5 Z"/></g>
<g><path style="opacity:1" fill="#030304" d="M 901.5,458.5 C 908.508,458.334 915.508,458.5 922.5,459C 933.552,475.608 944.219,492.441 954.5,509.5C 954.783,510.289 955.283,510.956 956,511.5C 956.5,493.836 956.667,476.17 956.5,458.5C 962.5,458.5 968.5,458.5 974.5,458.5C 974.5,486.833 974.5,515.167 974.5,543.5C 967.492,543.666 960.492,543.5 953.5,543C 942.448,526.392 931.781,509.559 921.5,492.5C 921.217,491.711 920.717,491.044 920,490.5C 919.5,507.83 919.333,525.163 919.5,542.5C 913.5,542.5 907.5,542.5 901.5,542.5C 901.5,514.5 901.5,486.5 901.5,458.5 Z"/></g>
<g><path style="opacity:1" fill="#050506" d="M 985.5,458.5 C 1006.17,458.5 1026.83,458.5 1047.5,458.5C 1047.81,464.425 1047.47,470.259 1046.5,476C 1032.5,476.5 1018.5,476.667 1004.5,476.5C 1004.5,481.5 1004.5,486.5 1004.5,491.5C 1017.5,491.5 1030.5,491.5 1043.5,491.5C 1043.5,497.167 1043.5,502.833 1043.5,508.5C 1030.5,508.5 1017.5,508.5 1004.5,508.5C 1004.5,514.167 1004.5,519.833 1004.5,525.5C 1018.83,525.5 1033.17,525.5 1047.5,525.5C 1047.82,531.358 1047.49,537.025 1046.5,542.5C 1026.17,542.5 1005.83,542.5 985.5,542.5C 985.5,514.5 985.5,486.5 985.5,458.5 Z"/></g>
<g><path style="opacity:1" fill="#000101" d="M 1096.5,542.5 C 1090.17,542.5 1083.83,542.5 1077.5,542.5C 1077.83,520.327 1077.5,498.327 1076.5,476.5C 1068.17,476.5 1059.83,476.5 1051.5,476.5C 1051.5,470.5 1051.5,464.5 1051.5,458.5C 1074.83,458.5 1098.17,458.5 1121.5,458.5C 1121.5,464.5 1121.5,470.5 1121.5,476.5C 1113.17,476.5 1104.83,476.5 1096.5,476.5C 1096.5,498.5 1096.5,520.5 1096.5,542.5 Z"/></g>
<g><path style="opacity:1" fill="#0d0e0f" d="M 267.5,459.5 C 289.833,459.5 312.167,459.5 334.5,459.5C 334.5,465.5 334.5,471.5 334.5,477.5C 326.5,477.5 318.5,477.5 310.5,477.5C 310.5,498.833 310.5,520.167 310.5,541.5C 304.167,541.5 297.833,541.5 291.5,541.5C 291.5,520.167 291.5,498.833 291.5,477.5C 283.5,477.5 275.5,477.5 267.5,477.5C 267.5,471.5 267.5,465.5 267.5,459.5 Z"/></g>
<g><path style="opacity:1" fill="#050606" d="M 377.5,460.5 C 398.467,462.978 406.967,474.645 403,495.5C 399.336,505.163 392.503,511.33 382.5,514C 390.833,523 399.167,532 407.5,541C 399.167,541.667 390.833,541.667 382.5,541C 375,532.167 367.5,523.333 360,514.5C 359.5,523.494 359.334,532.494 359.5,541.5C 353.5,541.5 347.5,541.5 341.5,541.5C 341.5,514.5 341.5,487.5 341.5,460.5C 353.5,460.5 365.5,460.5 377.5,460.5 Z M 359.5,477.5 C 366.589,477.116 373.589,477.616 380.5,479C 384.749,483.546 385.582,488.713 383,494.5C 381.745,495.211 380.579,496.044 379.5,497C 372.924,498.377 366.257,498.877 359.5,498.5C 359.5,491.5 359.5,484.5 359.5,477.5 Z"/></g>
<g><path style="opacity:1" fill="#121313" d="M 414.5,459.5 C 434.169,459.333 453.836,459.5 473.5,460C 474.833,465.667 474.833,471.333 473.5,477C 459.837,477.5 446.171,477.667 432.5,477.5C 432.5,482.167 432.5,486.833 432.5,491.5C 445.167,491.5 457.833,491.5 470.5,491.5C 470.5,497.167 470.5,502.833 470.5,508.5C 457.833,508.5 445.167,508.5 432.5,508.5C 432.5,513.833 432.5,519.167 432.5,524.5C 446.5,524.5 460.5,524.5 474.5,524.5C 474.5,530.167 474.5,535.833 474.5,541.5C 454.167,541.5 433.833,541.5 413.5,541.5C 413.176,514.093 413.509,486.759 414.5,459.5 Z"/></g>
<g><path style="opacity:1" fill="#0a0b0b" d="M 506.5,459.5 C 514.196,459.169 521.862,459.503 529.5,460.5C 539.239,487.385 548.573,514.385 557.5,541.5C 550.825,541.666 544.158,541.5 537.5,541C 535.833,536.667 534.167,532.333 532.5,528C 522.151,527.168 511.817,527.334 501.5,528.5C 499.758,532.725 498.424,537.059 497.5,541.5C 490.8,541.83 484.134,541.497 477.5,540.5C 487.372,513.548 497.039,486.548 506.5,459.5 Z M 526.5,509.5 C 520.167,510.833 513.833,510.833 507.5,509.5C 510.756,500.232 513.923,490.899 517,481.5C 520.471,490.745 523.637,500.079 526.5,509.5 Z"/></g>
<g><path style="opacity:1" fill="#0a0b0b" d="M 637.5,541.5 C 637.833,525.819 637.499,510.152 636.5,494.5C 635.702,494.957 635.369,495.624 635.5,496.5C 629.287,511.263 622.787,525.93 616,540.5C 611.333,541.833 606.667,541.833 602,540.5C 595.005,525.67 588.505,510.67 582.5,495.5C 582.217,494.711 581.717,494.044 581,493.5C 580.5,509.497 580.333,525.497 580.5,541.5C 574.5,541.5 568.5,541.5 562.5,541.5C 562.172,514.259 562.505,487.093 563.5,460C 571.08,459.187 578.58,459.353 586,460.5C 593.667,477.833 601.333,495.167 609,512.5C 617.379,495.371 625.379,478.037 633,460.5C 640.413,459.519 647.913,459.186 655.5,459.5C 655.5,486.833 655.5,514.167 655.5,541.5C 649.5,541.5 643.5,541.5 637.5,541.5 Z"/></g>
<g><path style="opacity:1" fill="#cad2d6" d="M 956.5,458.5 C 956.667,476.17 956.5,493.836 956,511.5C 955.283,510.956 954.783,510.289 954.5,509.5C 955.167,492.5 955.833,475.5 956.5,458.5 Z"/></g>
<g><path style="opacity:1" fill="#6f7b83" d="M 377.5,460.5 C 365.5,460.5 353.5,460.5 341.5,460.5C 341.5,487.5 341.5,514.5 341.5,541.5C 340.502,514.338 340.169,487.005 340.5,459.5C 353.011,459.171 365.345,459.505 377.5,460.5 Z"/></g>
<g><path style="opacity:1" fill="#4a4a4a" d="M 761.5,465.5 C 761.169,488.006 761.503,510.34 762.5,532.5C 762.44,533.043 762.107,533.376 761.5,533.5C 761.167,522 760.833,510.5 760.5,499C 760.489,487.092 760.823,475.925 761.5,465.5 Z"/></g>
<g><path style="opacity:1" fill="#161616" d="M 761.5,465.5 C 779.448,476.145 797.115,487.312 814.5,499C 797.308,510.427 779.975,521.593 762.5,532.5C 761.503,510.34 761.169,488.006 761.5,465.5 Z"/></g>
<g><path style="opacity:1" fill="#cad2d6" d="M 921.5,492.5 C 920.833,509.167 920.167,525.833 919.5,542.5C 919.333,525.163 919.5,507.83 920,490.5C 920.717,491.044 921.217,491.711 921.5,492.5 Z"/></g>
<g><path style="opacity:1" fill="#57656d" d="M 582.5,495.5 C 581.833,510.833 581.167,526.167 580.5,541.5C 580.333,525.497 580.5,509.497 581,493.5C 581.717,494.044 582.217,494.711 582.5,495.5 Z"/></g>
<g><path style="opacity:1" fill="#c7cfd3" d="M 637.5,541.5 C 636.833,526.5 636.167,511.5 635.5,496.5C 635.369,495.624 635.702,494.957 636.5,494.5C 637.499,510.152 637.833,525.819 637.5,541.5 Z"/></g>
<g><path style="opacity:1" fill="#c5cdd1" d="M 507.5,509.5 C 513.833,510.833 520.167,510.833 526.5,509.5C 527.043,509.56 527.376,509.893 527.5,510.5C 520.5,511.833 513.5,511.833 506.5,510.5C 506.624,509.893 506.957,509.56 507.5,509.5 Z"/></g>
<g><path style="opacity:1" fill="#869198" d="M 901.5,458.5 C 901.5,486.5 901.5,514.5 901.5,542.5C 907.5,542.5 913.5,542.5 919.5,542.5C 913.355,543.49 907.022,543.823 900.5,543.5C 900.169,514.995 900.502,486.662 901.5,458.5 Z"/></g>
<g><path style="opacity:1" fill="#55636b" d="M 985.5,458.5 C 985.5,486.5 985.5,514.5 985.5,542.5C 1005.83,542.5 1026.17,542.5 1046.5,542.5C 1026.01,543.497 1005.34,543.831 984.5,543.5C 984.169,514.995 984.502,486.662 985.5,458.5 Z"/></g>
<g><path style="opacity:1" fill="#889399" d="M 1076.5,476.5 C 1077.5,498.327 1077.83,520.327 1077.5,542.5C 1083.83,542.5 1090.17,542.5 1096.5,542.5C 1090.02,543.491 1083.35,543.824 1076.5,543.5C 1076.5,521.167 1076.5,498.833 1076.5,476.5 Z"/></g>
</svg>
